===================================================================================
===================================================================================
'##::::'##::::'###::::'##::::'##:'##::: ##:'########:'####:'##::: ##::'######:::===
 ##:::: ##:::'## ##::: ##:::: ##: ###:: ##:... ##..::. ##:: ###:: ##:'##... ##::===
 ##:::: ##::'##:. ##:: ##:::: ##: ####: ##:::: ##::::: ##:: ####: ##: ##:::..:::===
 #########:'##:::. ##: ##:::: ##: ## ## ##:::: ##::::: ##:: ## ## ##: ##::'####:===
 ##.... ##: #########: ##:::: ##: ##. ####:::: ##::::: ##:: ##. ####: ##::: ##::===
 ##:::: ##: ##.... ##: ##:::: ##: ##:. ###:::: ##::::: ##:: ##:. ###: ##::: ##::===
 ##:::: ##: ##:::: ##:. #######:: ##::. ##:::: ##::::'####: ##::. ##:. ######:::===
..:::::..::..:::::..:::.......:::..::::..:::::..:::::....::..::::..:::......::::======================================================================================

 --        SIMPLE PLAN - ASTRONAUT HD 1080P BY HAUNTING SUMMER


Format                           : MPEG-4
Format profile                   : Base Media / Version 2
Codec ID                         : mp42
File size                        : 79.1 MiB
Duration                         : 4mn 15s
Overall bit rate                 : 2 594 Kbps
                  
Video
ID                               : 1
Format                           : AVC
Format/Info                      : Advanced Video Codec
Format profile                   : High@L4.0
Format settings, CABAC           : Yes
Format settings, ReFrames        : 1 frame
Codec ID                         : avc1
Codec ID/Info                    : Advanced Video Coding
Duration                         : 4mn 15s
Bit rate mode                    : Variable
Bit rate                         : 2 437 Kbps
Maximum bit rate                 : 9 296 Kbps
Width                            : 1 920 pixels
Height                           : 1 080 pixels
Display aspect ratio             : 16:9
Frame rate mode                  : Variable
Frame rate                       : 23.976 fps
Minimum frame rate               : 23.810 fps
Maximum frame rate               : 24.390 fps
Color space                      : YUV
Chroma subsampling               : 4:2:0
Bit depth                        : 8 bits
Scan type                        : Progressive
Bits/(Pixel*Frame)               : 0.049
Stream size                      : 74.3 MiB (94%)


Audio
ID                               : 2
Format                           : AAC
Format/Info                      : Advanced Audio Codec
Format version                   : Version 4
Format profile                   : LC
Format settings, SBR             : No
Codec ID                         : 40
Duration                         : 4mn 15s
Bit rate mode                    : Variable
Bit rate                         : 151 Kbps
Maximum bit rate                 : 176 Kbps
Channel(s)                       : 2 channels
Channel positions                : Front: L R
Sampling rate                    : 44.1 KHz
Stream size                      : 4.61 MiB (6%)

--------------------------- SCREEN SHOTS -------------------------------------

                        http://bayimg.com/kaLBcAAdm
                        http://bayimg.com/KaLBeaadm

======================================================================================================================================================================
:'######::'##::::'##:'##::::'##:'##::::'##:'########:'########::===================
'##... ##: ##:::: ##: ###::'###: ###::'###: ##.....:: ##.... ##:===================
 ##:::..:: ##:::: ##: ####'####: ####'####: ##::::::: ##:::: ##:===================
. ######:: ##:::: ##: ## ### ##: ## ### ##: ######::: ########::===================
:..... ##: ##:::: ##: ##. #: ##: ##. #: ##: ##...:::: ##.. ##:::===================
'##::: ##: ##:::: ##: ##:.:: ##: ##:.:: ##: ##::::::: ##::. ##::===================
. ######::. #######:: ##:::: ##: ##:::: ##: ########: ##:::. ##:===================
:......::::.......:::..:::::..::..:::::..::........::..:::::..::===================
======================================================================================================================================================================
